<svg width="500" height="250" viewBox="0 0 500 250" fill="none" xmlns="http://www.w3.org/2000/svg">
<g filter="url(#filter0_d)">
<path d="M78.8534 109.245C77.4873 109.245 76.3798 110.353 76.3798 111.719V125.147C76.3798 126.513 77.4873 127.62 78.8534 127.62C80.2195 127.62 81.3269 126.513 81.3269 125.147V111.719C81.3269 110.353 80.2195 109.245 78.8534 109.245Z" fill="#01C78F"/>
<path d="M78.8534 109.245C77.4873 109.245 76.3798 110.353 76.3798 111.719V125.147C76.3798 126.513 77.4873 127.62 78.8534 127.62C80.2195 127.62 81.3269 126.513 81.3269 125.147V111.719C81.3269 110.353 80.2195 109.245 78.8534 109.245Z" fill="#01C78F"/>
<path d="M78.8534 109.245C77.4873 109.245 76.3798 110.353 76.3798 111.719V125.147C76.3798 126.513 77.4873 127.62 78.8534 127.62C80.2195 127.62 81.3269 126.513 81.3269 125.147V111.719C81.3269 110.353 80.2195 109.245 78.8534 109.245Z" fill="#01C78F"/>
<path fill-rule="evenodd" clip-rule="evenodd" d="M77.7933 52.7067H78.3897C78.3686 52.4704 78.3444 52.2349 78.3173 52.0002C78.3782 52.0001 78.4391 52 78.5 52C119.093 52 152 84.9071 152 125.5C152 166.093 119.093 199 78.5 199C37.9071 199 5 166.093 5 125.5C5 106.252 14.1875 84.1562 24.5065 75.6301C29.0288 74.262 27.7666 75.6301 27.7666 78.3507C16.2711 90.7145 9.24038 107.286 9.24038 125.5C9.24038 163.751 40.249 194.76 78.5 194.76C116.751 194.76 147.76 163.751 147.76 125.5C147.76 88.1958 118.267 57.78 81.3269 56.297V97.3867C90.8927 98.6018 98.2885 106.77 98.2885 116.666V139.281C98.2885 150.015 89.5871 158.716 78.8534 158.716C68.1197 158.716 59.4183 150.015 59.4183 139.281V116.666C59.4183 106.288 67.5525 97.8097 77.7933 97.2592V52.7067ZM94.7548 116.666V139.281C94.7548 148.063 87.6355 155.183 78.8534 155.183C70.0712 155.183 62.9519 148.063 62.9519 139.281V116.666C62.9519 107.884 70.0712 100.764 78.8534 100.764C87.6355 100.764 94.7548 107.884 94.7548 116.666Z" fill="#01C78F"/>
<path fill-rule="evenodd" clip-rule="evenodd" d="M77.7933 52.7067H78.3897C78.3686 52.4704 78.3444 52.2349 78.3173 52.0002C78.3782 52.0001 78.4391 52 78.5 52C119.093 52 152 84.9071 152 125.5C152 166.093 119.093 199 78.5 199C37.9071 199 5 166.093 5 125.5C5 106.252 14.1875 84.1562 24.5065 75.6301C29.0288 74.262 27.7666 75.6301 27.7666 78.3507C16.2711 90.7145 9.24038 107.286 9.24038 125.5C9.24038 163.751 40.249 194.76 78.5 194.76C116.751 194.76 147.76 163.751 147.76 125.5C147.76 88.1958 118.267 57.78 81.3269 56.297V97.3867C90.8927 98.6018 98.2885 106.77 98.2885 116.666V139.281C98.2885 150.015 89.5871 158.716 78.8534 158.716C68.1197 158.716 59.4183 150.015 59.4183 139.281V116.666C59.4183 106.288 67.5525 97.8097 77.7933 97.2592V52.7067ZM94.7548 116.666V139.281C94.7548 148.063 87.6355 155.183 78.8534 155.183C70.0712 155.183 62.9519 148.063 62.9519 139.281V116.666C62.9519 107.884 70.0712 100.764 78.8534 100.764C87.6355 100.764 94.7548 107.884 94.7548 116.666Z" fill="#01C78F"/>
<path fill-rule="evenodd" clip-rule="evenodd" d="M77.7933 52.7067H78.3897C78.3686 52.4704 78.3444 52.2349 78.3173 52.0002C78.3782 52.0001 78.4391 52 78.5 52C119.093 52 152 84.9071 152 125.5C152 166.093 119.093 199 78.5 199C37.9071 199 5 166.093 5 125.5C5 106.252 14.1875 84.1562 24.5065 75.6301C29.0288 74.262 27.7666 75.6301 27.7666 78.3507C16.2711 90.7145 9.24038 107.286 9.24038 125.5C9.24038 163.751 40.249 194.76 78.5 194.76C116.751 194.76 147.76 163.751 147.76 125.5C147.76 88.1958 118.267 57.78 81.3269 56.297V97.3867C90.8927 98.6018 98.2885 106.77 98.2885 116.666V139.281C98.2885 150.015 89.5871 158.716 78.8534 158.716C68.1197 158.716 59.4183 150.015 59.4183 139.281V116.666C59.4183 106.288 67.5525 97.8097 77.7933 97.2592V52.7067ZM94.7548 116.666V139.281C94.7548 148.063 87.6355 155.183 78.8534 155.183C70.0712 155.183 62.9519 148.063 62.9519 139.281V116.666C62.9519 107.884 70.0712 100.764 78.8534 100.764C87.6355 100.764 94.7548 107.884 94.7548 116.666Z" fill="#01C78F"/>
</g>
<path d="M182.387 88.8125H189.172V125.059C189.172 129.957 187.695 133.789 184.742 136.555C181.812 139.32 177.898 140.703 173 140.703C167.914 140.703 163.953 139.402 161.117 136.801C158.281 134.199 156.863 130.555 156.863 125.867H163.613C163.613 128.797 164.41 131.082 166.004 132.723C167.621 134.363 169.953 135.184 173 135.184C175.789 135.184 178.039 134.305 179.75 132.547C181.484 130.789 182.363 128.328 182.387 125.164V88.8125ZM223.84 126.641H202.395L197.578 140H190.618L210.164 88.8125H216.071L235.653 140H228.727L223.84 126.641ZM204.434 121.086H221.836L213.118 97.1445L204.434 121.086ZM250.528 114.512L263.887 88.8125H271.551L253.903 120.91V140H247.153V120.91L229.505 88.8125H237.239L250.528 114.512ZM280.626 134.48H304.884V140H273.841V88.8125H280.626V134.48ZM315.505 140H308.755V88.8125H315.505V140Z" fill="white"/>
<path d="M366.594 123.758C365.961 129.172 363.957 133.355 360.582 136.309C357.23 139.238 352.766 140.703 347.188 140.703C341.141 140.703 336.289 138.535 332.633 134.199C329 129.863 327.184 124.062 327.184 116.797V111.875C327.184 107.117 328.027 102.934 329.715 99.3242C331.426 95.7148 333.84 92.9492 336.957 91.0273C340.074 89.082 343.684 88.1094 347.785 88.1094C353.223 88.1094 357.582 89.6328 360.863 92.6797C364.145 95.7031 366.055 99.8984 366.594 105.266H359.809C359.223 101.188 357.945 98.2344 355.977 96.4062C354.031 94.5781 351.301 93.6641 347.785 93.6641C343.473 93.6641 340.086 95.2578 337.625 98.4453C335.188 101.633 333.969 106.168 333.969 112.051V117.008C333.969 122.562 335.129 126.98 337.449 130.262C339.77 133.543 343.016 135.184 347.188 135.184C350.938 135.184 353.809 134.34 355.801 132.652C357.816 130.941 359.152 127.977 359.809 123.758H366.594ZM410.895 116.059C410.895 121.074 410.051 125.457 408.364 129.207C406.676 132.934 404.285 135.781 401.192 137.75C398.098 139.719 394.489 140.703 390.364 140.703C386.332 140.703 382.758 139.719 379.641 137.75C376.524 135.758 374.098 132.934 372.364 129.277C370.653 125.598 369.774 121.344 369.727 116.516V112.824C369.727 107.902 370.582 103.555 372.293 99.7812C374.004 96.0078 376.418 93.125 379.535 91.1328C382.676 89.1172 386.262 88.1094 390.293 88.1094C394.395 88.1094 398.004 89.1055 401.121 91.0977C404.262 93.0664 406.676 95.9375 408.364 99.7109C410.051 103.461 410.895 107.832 410.895 112.824V116.059ZM404.18 112.754C404.18 106.684 402.961 102.031 400.524 98.7969C398.086 95.5391 394.676 93.9102 390.293 93.9102C386.028 93.9102 382.664 95.5391 380.203 98.7969C377.766 102.031 376.512 106.531 376.442 112.297V116.059C376.442 121.941 377.672 126.57 380.133 129.945C382.618 133.297 386.028 134.973 390.364 134.973C394.723 134.973 398.098 133.391 400.489 130.227C402.879 127.039 404.11 122.48 404.18 116.551V112.754ZM416.7 140V88.8125H431.149C435.602 88.8125 439.54 89.7969 442.962 91.7656C446.383 93.7344 449.02 96.5352 450.872 100.168C452.747 103.801 453.696 107.973 453.719 112.684V115.953C453.719 120.781 452.782 125.012 450.907 128.645C449.055 132.277 446.395 135.066 442.926 137.012C439.481 138.957 435.462 139.953 430.868 140H416.7ZM423.45 94.3672V134.48H430.551C435.755 134.48 439.798 132.863 442.68 129.629C445.587 126.395 447.04 121.789 447.04 115.812V112.824C447.04 107.012 445.669 102.5 442.926 99.2891C440.208 96.0547 436.34 94.4141 431.325 94.3672H423.45ZM488.563 116.34H466.38V134.48H492.149V140H459.63V88.8125H491.798V94.3672H466.38V110.82H488.563V116.34Z" fill="#01C78F"/>
<path d="M205.98 179V161.938H210.797C212.281 161.938 213.594 162.266 214.734 162.922C215.875 163.578 216.754 164.512 217.371 165.723C217.996 166.934 218.312 168.324 218.32 169.895V170.984C218.32 172.594 218.008 174.004 217.383 175.215C216.766 176.426 215.879 177.355 214.723 178.004C213.574 178.652 212.234 178.984 210.703 179H205.98ZM208.23 163.789V177.16H210.598C212.332 177.16 213.68 176.621 214.641 175.543C215.609 174.465 216.094 172.93 216.094 170.938V169.941C216.094 168.004 215.637 166.5 214.723 165.43C213.816 164.352 212.527 163.805 210.855 163.789H208.23ZM238.575 171.113H231.18V177.16H239.77V179H228.93V161.938H239.653V163.789H231.18V169.273H238.575V171.113ZM255.42 176.012L260.295 161.938H262.755L256.427 179H254.435L248.119 161.938H250.568L255.42 176.012ZM281.897 171.113H274.502V177.16H283.092V179H272.252V161.938H282.975V163.789H274.502V169.273H281.897V171.113ZM295.355 177.16H303.441V179H293.093V161.938H295.355V177.16ZM325.559 171.02C325.559 172.691 325.277 174.152 324.715 175.402C324.152 176.645 323.355 177.594 322.324 178.25C321.293 178.906 320.09 179.234 318.715 179.234C317.371 179.234 316.18 178.906 315.141 178.25C314.102 177.586 313.293 176.645 312.715 175.426C312.145 174.199 311.852 172.781 311.836 171.172V169.941C311.836 168.301 312.121 166.852 312.691 165.594C313.262 164.336 314.066 163.375 315.105 162.711C316.152 162.039 317.348 161.703 318.691 161.703C320.059 161.703 321.262 162.035 322.301 162.699C323.348 163.355 324.152 164.312 324.715 165.57C325.277 166.82 325.559 168.277 325.559 169.941V171.02ZM323.32 169.918C323.32 167.895 322.914 166.344 322.102 165.266C321.289 164.18 320.152 163.637 318.691 163.637C317.27 163.637 316.148 164.18 315.328 165.266C314.516 166.344 314.098 167.844 314.074 169.766V171.02C314.074 172.98 314.484 174.523 315.305 175.648C316.133 176.766 317.27 177.324 318.715 177.324C320.168 177.324 321.293 176.797 322.09 175.742C322.887 174.68 323.297 173.16 323.32 171.184V169.918ZM338.384 172.32V179H336.134V161.938H342.427C344.294 161.938 345.755 162.414 346.809 163.367C347.872 164.32 348.403 165.582 348.403 167.152C348.403 168.809 347.884 170.086 346.845 170.984C345.813 171.875 344.333 172.32 342.403 172.32H338.384ZM338.384 170.48H342.427C343.63 170.48 344.552 170.199 345.192 169.637C345.833 169.066 346.153 168.246 346.153 167.176C346.153 166.16 345.833 165.348 345.192 164.738C344.552 164.129 343.673 163.812 342.555 163.789H338.384V170.48ZM368.119 171.113H360.724V177.16H369.314V179H358.474V161.938H369.197V163.789H360.724V169.273H368.119V171.113ZM385.573 172.098H381.565V179H379.303V161.938H384.952C386.873 161.938 388.35 162.375 389.381 163.25C390.42 164.125 390.94 165.398 390.94 167.07C390.94 168.133 390.651 169.059 390.073 169.848C389.502 170.637 388.705 171.227 387.682 171.617L391.69 178.859V179H389.276L385.573 172.098ZM381.565 170.258H385.022C386.139 170.258 387.026 169.969 387.682 169.391C388.346 168.812 388.678 168.039 388.678 167.07C388.678 166.016 388.362 165.207 387.729 164.645C387.104 164.082 386.198 163.797 385.01 163.789H381.565V170.258Z" fill="#01C78F"/>
<defs>
<filter id="filter0_d" x="1" y="52" width="155" height="155" filterUnits="userSpaceOnUse" color-interpolation-filters="sRGB">
<feFlood flood-opacity="0" result="BackgroundImageFix"/>
<feColorMatrix in="SourceAlpha" type="matrix" values="0 0 0 0 0 0 0 0 0 0 0 0 0 0 0 0 0 0 127 0"/>
<feOffset dy="4"/>
<feGaussianBlur stdDeviation="2"/>
<feColorMatrix type="matrix" values="0 0 0 0 0 0 0 0 0 0 0 0 0 0 0 0 0 0 0.25 0"/>
<feBlend mode="normal" in2="BackgroundImageFix" result="effect1_dropShadow"/>
<feBlend mode="normal" in="SourceGraphic" in2="effect1_dropShadow" result="shape"/>
</filter>
</defs>
</svg>
